PathFileType	4	(X/Y/Z)	/Users/visionmauri/1_1_1_f_Sports2D/1_1_1_f_Sports2D_m_person00.trc
DataRate	CameraRate	NumFrames	NumMarkers	Units	OrigDataRate	OrigDataStartFrame	OrigNumFrames
30.0	30.0	9	22	m	30.0	268	358
Frame#	Time	Hip			RHip			RKnee			RAnkle			RBigToe			RSmallToe			RHeel			LHip			LKnee			LAnkle			LBigToe			LSmallToe			LHeel			Neck			Head			Nose			RShoulder			RElbow			RWrist			LShoulder			LElbow			LWrist			
		X1	Y1	Z1	X2	Y2	Z2	X3	Y3	Z3	X4	Y4	Z4	X5	Y5	Z5	X6	Y6	Z6	X7	Y7	Z7	X8	Y8	Z8	X9	Y9	Z9	X10	Y10	Z10	X11	Y11	Z11	X12	Y12	Z12	X13	Y13	Z13	X14	Y14	Z14	X15	Y15	Z15	X16	Y16	Z16	X17	Y17	Z17	X18	Y18	Z18	X19	Y19	Z19	X20	Y20	Z20	X21	Y21	Z21	X22	Y22	Z22
268	8.958356676003735	0.5642063488984843	0.790619949421854	0.0301	0.48818186665210034	0.7411368757014313	0.0301	0.6285355622441464	0.44117327302859644	0.129	0.7754144709964544	0.1600770144898454	0.023	0.8217808566228164	0.05322048885911429	0.2179	0.7670545122346825	0.04634365486664216	0.1804	0.8212838368951288	0.1237243354360858	-0.0119	0.6513491839164494	0.8179235822565022	0.0301	0.7799714220366284	0.528162871110377	0.129	0.9218174409949756	0.15409196720129525	0.023	0.926905232355683	0.041256266765102655	0.2179	0.972987275066857	0.057312175741458894	0.1804	0.9351473611651269	0.09271839881008842	-0.0119	0.36152962639920255	1.2537142068026284	0.0008	0.2784789470116167	1.4575546230775311	0.0655	0.3418751621898283	1.3063213299784375	0.1076	0.2315747286560844	1.12307127529254	-0.01275	0.2715576178076959	0.9018836563946794	0.0702	0.3054210209148879	0.7232644616078228	0.1076	0.5381108047441767	1.274070351412274	-0.01275	0.6740153406485314	1.0916462623704524	0.0702	0.7001264989004189	1.0541506028937173	0.1076
269	8.991783380018674	0.5678079262044268	0.790322846343325	0.0301	0.49355308022684	0.7391143023618245	0.0301	0.6313542813578608	0.4398646821420364	0.129	0.776267339074223	0.16081041001292987	0.023	0.8243941018396329	0.054033749177258235	0.2179	0.7674245179035922	0.045503077630076945	0.1804	0.8238135854226484	0.12524801390778428	-0.0119	0.6558953773663743	0.8129965682178264	0.0301	0.7817125803257341	0.5246844092550849	0.129	0.9244143821246262	0.14774584923918216	0.023	0.9346845200052986	0.02804442249318396	0.2179	0.9796815137715409	0.04824237617923059	0.1804	0.9373837663756224	0.08965203279391053	-0.0119	0.3653048657195575	1.2556089505976715	0.0008	0.28484481297907266	1.4597129219460723	0.0655	0.3484103332690748	1.3100642368500617	0.1076	0.23515174446103213	1.127711460930592	-0.01275	0.2742352584556916	0.9050848953833468	0.0702	0.30473388669255863	0.7238534796552454	0.1076	0.5425192409985559	1.2755338389087627	-0.01275	0.6770356493614965	1.0962841080203254	0.0702	0.6996925728812934	1.0626117392384513	0.1076
270	9.025210084033613	0.5700315217672449	0.7911995843074878	0.0301	0.4979747583055652	0.7365697454433368	0.0301	0.6337757708881818	0.4384729796759861	0.129	0.7765022046106753	0.16189137786105356	0.023	0.8248380169398308	0.05400420602886269	0.2179	0.7675882971723995	0.04475110527171037	0.1804	0.8224029855097014	0.1274135338593551	-0.0119	0.6606835697145984	0.8091413198490244	0.0301	0.7833113318736742	0.5221603274201324	0.129	0.9267276239178244	0.144626101673143	0.023	0.9390124204923684	0.025177676935996474	0.2179	0.9832411275593514	0.04636103045218941	0.1804	0.9385436024828522	0.08832104666127039	-0.0119	0.36922902889336023	1.256705452818311	0.0008	0.2918962304443771	1.4639830083109315	0.0655	0.35596356462772666	1.3126943617703941	0.1076	0.23757289680979082	1.1329840076412616	-0.01275	0.27607794000901215	0.9070610722880622	0.0702	0.30525085365017973	0.723437953302184	0.1076	0.5468221089862491	1.2786244212472182	-0.01275	0.6778427573869061	1.1036410517194226	0.0702	0.7023820437685943	1.0711172696308182	0.1076
271	9.058636788048553	0.5716412119303482	0.7927511863361932	0.0301	0.49949181923041763	0.735615876400528	0.0301	0.6349393206760086	0.43514210576009493	0.129	0.7750192181257066	0.16282197120165656	0.023	0.8245957707635432	0.05396522215754608	0.2179	0.768086883133755	0.04412263825817587	0.1804	0.8170669964570043	0.13009708563534803	-0.0119	0.6643697538568705	0.8090967529682882	0.0301	0.787101380440377	0.5192145313851209	0.129	0.9298708817309821	0.14201266992566614	0.023	0.9409734594117225	0.025181619469632946	0.2179	0.984319958585102	0.04561808647413432	0.1804	0.9397198155415193	0.08557914435564476	-0.0119	0.37412899984617315	1.2588833567729567	0.0008	0.2986846800836818	1.4710369931126501	0.0655	0.36518029087481835	1.3152329044152076	0.1076	0.23981294385328739	1.1380120231884505	-0.01275	0.27646311285620023	0.9081566043052878	0.0702	0.3074717592076954	0.7225318142590863	0.1076	0.5519998417979978	1.2826410521338396	-0.01275	0.6795060313060955	1.107132678979748	0.0702	0.7078377347390956	1.0757515127886441	0.1076
272	9.092063492063492	0.5730267052863695	0.7944964999011564	0.0301	0.4990373586789792	0.7357625980912346	0.0301	0.6355040470665053	0.4280769100592824	0.129	0.7721752599530363	0.16288672713108404	0.023	0.8247880362168526	0.054306495224290645	0.2179	0.769817236654912	0.04391418431248725	0.1804	0.8109268578584871	0.13225117187956204	-0.0119	0.6663615468388626	0.8115142905339976	0.0301	0.7922161124345843	0.5174929251770778	0.129	0.9319204613333315	0.14008874107306135	0.023	0.9415851864443319	0.025764012796381273	0.2179	0.9852445010881138	0.04574680859707289	0.1804	0.9399987890553158	0.08396705092294787	-0.0119	0.3798401205558703	1.2643445750293907	0.0008	0.305570551938369	1.478365888773277	0.0655	0.3737864000548463	1.320085395842755	0.1076	0.24267128640996816	1.143562657600404	-0.01275	0.2763858646562047	0.9098268856176919	0.0702	0.3100923162907193	0.7234894163899915	0.1076	0.5585449380594821	1.2855264453832589	-0.01275	0.6852352282411838	1.1042749989985925	0.0702	0.712739675842188	1.0768732107902883	0.1076
273	9.125490196078431	0.5747322915173987	0.7953773547643792	0.0301	0.4986038709583589	0.7360156423605227	0.0301	0.6361296081944691	0.4179184174739315	0.129	0.7693745425414136	0.16313337235043723	0.023	0.8254480029536315	0.05374575869255113	0.2179	0.7726446765242353	0.04354618244187027	0.1804	0.805676053093137	0.13417002395538113	-0.0119	0.6675529554373543	0.8140280228529562	0.0301	0.7968790621475589	0.5177622763555499	0.129	0.9334773251995584	0.13854060787918224	0.023	0.9419141128334301	0.025665412491017104	0.2179	0.9873571201537596	0.04611838926038745	0.1804	0.939007170621825	0.0853330793046314	-0.0119	0.3852812911979108	1.2716762861794246	0.0008	0.31343529926404434	1.4844403121376255	0.0655	0.38014293101847163	1.327745057238909	0.1076	0.24564576704637361	1.1496559277512257	-0.01275	0.2774848397554708	0.9128351487118926	0.0702	0.3109533832646144	0.72546747789529	0.1076	0.5647564111113614	1.2869297389595222	-0.01275	0.6932520066915685	1.101959947263567	0.0702	0.7165561037464558	1.077795253671084	0.1076
274	9.15891690009337	0.5773554536923131	0.7941659533504885	0.0301	0.49880215686424684	0.7361785413177403	0.0301	0.6355662036979011	0.40791129130849835	0.129	0.7664664083821835	0.16721987623766302	0.023	0.8265195278084397	0.05078371827229474	0.2179	0.7742806446853393	0.04189282820107208	0.1804	0.7997285514142356	0.1401670719469341	-0.0119	0.6693363979214199	0.8152844577846217	0.0301	0.7999228438216787	0.5180332345845193	0.129	0.9353299792192786	0.13705110109121338	0.023	0.9422217576739296	0.023247562633364468	0.2179	0.9884407132970221	0.04439989382561362	0.1804	0.9379461717296762	0.08743238284386293	-0.0119	0.38963243088909477	1.2758916000613656	0.0008	0.3207696719141112	1.4905921153092259	0.0655	0.38466103525560763	1.3346445407003473	0.1076	0.2478168206389506	1.1549419695958307	-0.01275	0.2797131720312541	0.9167531295596771	0.0702	0.3097868181355875	0.7252010947013289	0.1076	0.569117391388483	1.2888769825837896	-0.01275	0.6989344152417565	1.1061511934849941	0.0702	0.722449606699402	1.079857738080914	0.1076
275	9.19234360410831	0.5798699348659092	0.7909194317964325	0.0301	0.4988257033025304	0.7360670422404395	0.0301	0.6324852469888498	0.4003435090764172	0.129	0.7623207094996861	0.17696401255817792	0.023	0.8280108122482752	0.04574094667135848	0.2179	0.7732187568972011	0.03963400858798474	0.1804	0.7916502403968249	0.1536481802942502	-0.0119	0.6718480423185518	0.8150306774993944	0.0301	0.8011293570109254	0.5156036096803659	0.129	0.9356900197669216	0.13538570338500713	0.023	0.9409802193216015	0.018148663333799598	0.2179	0.9864090473314764	0.03994907465379679	0.1804	0.9379529941689019	0.08720664156531414	-0.0119	0.3931525474125387	1.2755609671973256	0.0008	0.3247597767871839	1.497196971334366	0.0655	0.38689737601221397	1.3379706160411977	0.1076	0.2494621488590914	1.1588815673679476	-0.01275	0.2820614908067387	0.9211418991522763	0.0702	0.3089543159995293	0.7226261809661501	0.1076	0.5728964056840802	1.2923564802507046	-0.01275	0.7029867113822177	1.1129818695216847	0.0702	0.732389811431654	1.0824371243233875	0.1076
276	9.225770308123248	0.5804168869604247	0.7876473782519314	0.0301	0.4978670655211812	0.735296828824979	0.0301	0.6271300892687081	0.3942137782061098	0.129	0.757715253617715	0.18826922787340006	0.023	0.8288945879511815	0.04123027968883244	0.2179	0.771214639923653	0.03876696446275341	0.1804	0.7837197538475031	0.17053034634543413	-0.0119	0.6740182134993237	0.813799396752204	0.0301	0.8013005779423629	0.5106891374240494	0.129	0.9346629194414302	0.13333952926537035	0.023	0.9379770384985213	0.011886427232950499	0.2179	0.983779288045817	0.034755627189567956	0.1804	0.9392937643500325	0.08360287469801936	-0.0119	0.3962082380153925	1.2752888560425084	0.0008	0.3254185308346228	1.5026177837641463	0.0655	0.3862603128069281	1.3397948147466097	0.1076	0.2514307488916876	1.1622315618691654	-0.01275	0.28411830401469024	0.9252043924846829	0.0702	0.31005461872429624	0.7203356719781825	0.1076	0.5771952540438626	1.2958720729760012	-0.01275	0.7097460294194999	1.116851971544591	0.0702	0.7435249549975708	1.085378179794577	0.1076
